name rise34.3697peak60.0498fall86.3158.mot
datacolumns 19
datarows 23
range 18.56493900000000 18.60159500000000
endheader
time	ground_force1_vx	ground_force1_vy	ground_force1_vz	ground_force1_px	ground_force1_py	ground_force1_pz	ground_force2_vx	ground_force2_vy	ground_force2_vz	ground_force2_px	ground_force2_py	ground_force2_pz	ground_torque1_x	ground_torque1_y	ground_torque1_z	ground_torque2_x	ground_torque2_y	ground_torque2_z	
18.56493900000000	-40.77121200000000	808.54628800000000	64.41882000000000	0.18913400000000	0.00000000000000	0.12642000000000	-7.43287200000000	21.46828300000000	4.70123500000000	0.00000000000000	0.00000000000000	0.00000000000000	0.00000000000000	33.91089700000000	0.00000000000000	0.00000000000000	1.78002200000000	0.00000000000000	
18.56659900000000	-40.93109000000000	805.45029899999997	64.08534899999999	0.18843600000000	0.00000000000000	0.12628300000000	-8.95388400000000	27.43337200000000	5.75536200000000	0.44827900000000	0.00000000000000	-0.05825700000000	0.00000000000000	33.71262700000000	0.00000000000000	0.00000000000000	4.25423400000000	0.00000000000000	
18.56826200000000	-41.10106200000000	802.21164199999998	63.72054300000000	0.18772200000000	0.00000000000000	0.12614200000000	-10.42357100000000	33.79936900000000	6.80727800000000	0.44912300000000	0.00000000000000	-0.05970400000000	0.00000000000000	33.50668200000000	0.00000000000000	0.00000000000000	5.05149700000000	0.00000000000000	
18.56993000000000	-41.28166400000000	798.83161299999995	63.32441400000000	0.18699100000000	0.00000000000000	0.12599900000000	-11.78443000000000	40.44355800000000	7.82217900000000	0.44967700000000	0.00000000000000	-0.06104100000000	0.00000000000000	33.29330300000000	0.00000000000000	0.00000000000000	5.82736000000000	0.00000000000000	
18.57159900000000	-41.47337900000000	795.31155899999999	62.89703600000000	0.18624200000000	0.00000000000000	0.12585200000000	-12.98507800000000	47.24593800000000	8.76808900000000	0.45000900000000	0.00000000000000	-0.06228100000000	0.00000000000000	33.07274700000000	0.00000000000000	0.00000000000000	6.55908200000000	0.00000000000000	
18.57326200000000	-41.67663200000000	791.65286800000001	62.43854200000000	0.18547500000000	0.00000000000000	0.12570200000000	-13.98363800000000	54.09841500000000	9.61799100000000	0.45017200000000	0.00000000000000	-0.06343700000000	0.00000000000000	32.84527800000000	0.00000000000000	0.00000000000000	7.22755100000000	0.00000000000000	
18.57493000000000	-41.89178800000000	787.85696499999995	61.94912500000000	0.18469200000000	0.00000000000000	0.12554900000000	-14.74998000000000	60.91190100000000	10.35130700000000	0.45020900000000	0.00000000000000	-0.06451900000000	0.00000000000000	32.61116900000000	0.00000000000000	0.00000000000000	7.81829100000000	0.00000000000000	
18.57659900000000	-42.11914600000000	783.92529999999999	61.42903600000000	0.18389100000000	0.00000000000000	0.12539200000000	-15.26669600000000	67.62083500000000	10.95465600000000	0.45015200000000	0.00000000000000	-0.06553400000000	0.00000000000000	32.37070100000000	0.00000000000000	0.00000000000000	8.32195000000000	0.00000000000000	
18.57826400000000	-42.35894100000000	779.85934199999997	60.87858400000000	0.18307200000000	0.00000000000000	0.12523300000000	-15.52889600000000	74.18505900000000	11.42189900000000	0.45003000000000	0.00000000000000	-0.06649000000000	0.00000000000000	32.12416200000000	0.00000000000000	0.00000000000000	8.73429300000000	0.00000000000000	
18.57992700000000	-42.61133500000000	775.66057100000000	60.29813500000000	0.18223700000000	0.00000000000000	0.12506900000000	-15.54301000000000	80.58927900000000	11.75359200000000	0.44986300000000	0.00000000000000	-0.06739200000000	0.00000000000000	31.87184400000000	0.00000000000000	0.00000000000000	9.05577100000000	0.00000000000000	
18.58160300000000	-42.87641700000000	771.33047599999998	59.68811300000000	0.18138600000000	0.00000000000000	0.12490300000000	-15.32485500000000	86.84056300000000	11.95597900000000	0.44967000000000	0.00000000000000	-0.06824600000000	0.00000000000000	31.61404100000000	0.00000000000000	0.00000000000000	9.29078900000000	0.00000000000000	
18.58326000000000	-43.15420000000000	766.87054100000000	59.04899800000000	0.18051800000000	0.00000000000000	0.12473200000000	-14.89726400000000	92.96442200000000	12.03968900000000	0.44946400000000	0.00000000000000	-0.06905500000000	0.00000000000000	31.35105100000000	0.00000000000000	0.00000000000000	9.44676800000000	0.00000000000000	
18.58492600000000	-43.44462000000000	762.28224799999998	58.38132300000000	0.17963500000000	0.00000000000000	0.12455800000000	-14.28754200000000	99.00003300000000	12.01830000000000	0.44925600000000	0.00000000000000	-0.06982400000000	0.00000000000000	31.08317100000000	0.00000000000000	0.00000000000000	9.53313700000000	0.00000000000000	
18.58662400000000	-43.74753000000000	757.56706799999995	57.68567400000000	0.17873700000000	0.00000000000000	0.12438100000000	-13.52498600000000	104.99516900000000	11.90691100000000	0.44905700000000	0.00000000000000	-0.07055500000000	0.00000000000000	30.81069700000000	0.00000000000000	0.00000000000000	9.56032800000000	0.00000000000000	
18.58826700000000	-44.06270100000000	752.72645599999998	56.96269200000000	0.17782500000000	0.00000000000000	0.12419900000000	-12.63866500000000	111.00128100000001	11.72082900000000	0.44887300000000	0.00000000000000	-0.07125200000000	0.00000000000000	30.53392100000000	0.00000000000000	0.00000000000000	9.53887200000000	0.00000000000000	
18.58993100000000	-44.38981800000000	747.76184999999998	56.21306500000000	0.17689900000000	0.00000000000000	0.12401400000000	-11.65559000000000	117.06910300000000	11.47447300000000	0.44870900000000	0.00000000000000	-0.07191600000000	0.00000000000000	30.25313100000000	0.00000000000000	0.00000000000000	9.47864400000000	0.00000000000000	
18.59159500000000	-44.72848100000000	742.67466700000000	55.43753200000000	0.17596100000000	0.00000000000000	0.12382500000000	-10.59935100000000	123.24504399999999	11.18052400000000	0.44857200000000	0.00000000000000	-0.07255000000000	0.00000000000000	29.96861000000000	0.00000000000000	0.00000000000000	9.38828300000000	0.00000000000000	
18.59325900000000	-45.07820300000000	737.46630100000004	54.63688000000000	0.17501200000000	0.00000000000000	0.12363300000000	-9.48924400000000	129.56849299999999	10.84936100000000	0.44846300000000	0.00000000000000	-0.07315600000000	0.00000000000000	29.68063200000000	0.00000000000000	0.00000000000000	9.27480800000000	0.00000000000000	
18.59492700000000	-45.43840700000000	732.13811899999996	53.81194100000000	0.17405200000000	0.00000000000000	0.12343600000000	-8.33986800000000	136.07008900000000	10.48876300000000	0.44838500000000	0.00000000000000	-0.07373600000000	0.00000000000000	29.38946100000000	0.00000000000000	0.00000000000000	9.14342700000000	0.00000000000000	
18.59659200000000	-45.80842700000000	726.69146400000000	52.96359000000000	0.17308300000000	0.00000000000000	0.12323600000000	-7.16113900000000	142.77091799999999	10.10386300000000	0.44834100000000	0.00000000000000	-0.07429200000000	0.00000000000000	29.09535300000000	0.00000000000000	0.00000000000000	8.99750200000000	0.00000000000000	
18.59826300000000	-46.18751100000000	721.12765000000002	52.09274600000000	0.17210500000000	0.00000000000000	0.12303100000000	-5.95864800000000	149.68251400000000	9.69730400000000	0.44833200000000	0.00000000000000	-0.07482400000000	0.00000000000000	28.79854800000000	0.00000000000000	0.00000000000000	8.83866400000000	0.00000000000000	
18.59993200000000	-46.57481600000000	715.44796499999995	51.20036700000000	0.17112100000000	0.00000000000000	0.12282300000000	-4.73426900000000	156.80754099999999	9.26955100000000	0.44835800000000	0.00000000000000	-0.07533400000000	0.00000000000000	28.49927700000000	0.00000000000000	0.00000000000000	8.66703000000000	0.00000000000000	
18.60159500000000	-46.96941100000000	709.65366900000004	50.28744900000000	0.17013100000000	0.00000000000000	0.12261100000000	-3.48692700000000	164.14094900000001	8.81931200000000	0.44841900000000	0.00000000000000	-0.07582300000000	0.00000000000000	28.19775300000000	0.00000000000000	0.00000000000000	8.48149100000000	0.00000000000000	
